<svg xmlns="http://www.w3.org/2000/svg" xmlns:xlink="http://www.w3.org/1999/xlink" width="1080" zoomAndPan="magnify" viewBox="0 0 810 809.999993" height="1080" preserveAspectRatio="xMidYMid meet" version="1.0"><defs><clipPath id="3b2874c0db"><path d="M 320 320 L 490 320 L 490 490 L 320 490 Z M 320 320 " clip-rule="nonzero"/></clipPath><clipPath id="0fd6d44dc5"><path d="M 286.171875 404.996094 L 405.003906 286.167969 L 523.832031 404.996094 L 405.003906 523.824219 Z M 286.171875 404.996094 " clip-rule="nonzero"/></clipPath><clipPath id="898c63bad1"><path d="M 345.585938 345.582031 C 312.773438 378.394531 312.773438 431.597656 345.585938 464.410156 C 378.402344 497.226562 431.601562 497.226562 464.417969 464.410156 C 497.230469 431.597656 497.230469 378.394531 464.417969 345.582031 C 431.601562 312.765625 378.402344 312.765625 345.585938 345.582031 Z M 345.585938 345.582031 " clip-rule="nonzero"/></clipPath><clipPath id="bbe38e7a89"><path d="M 605 320 L 774 320 L 774 489 L 605 489 Z M 605 320 " clip-rule="nonzero"/></clipPath><clipPath id="df28557a14"><path d="M 570.253906 404.503906 L 689.085938 285.675781 L 807.914062 404.503906 L 689.085938 523.332031 Z M 570.253906 404.503906 " clip-rule="nonzero"/></clipPath><clipPath id="6ad5a93490"><path d="M 629.667969 345.089844 C 596.855469 377.902344 596.855469 431.105469 629.667969 463.917969 C 662.484375 496.734375 715.683594 496.734375 748.5 463.917969 C 781.3125 431.105469 781.3125 377.902344 748.5 345.089844 C 715.683594 312.273438 662.484375 312.273438 629.667969 345.089844 Z M 629.667969 345.089844 " clip-rule="nonzero"/></clipPath><clipPath id="a103dc2d0d"><path d="M 462 462 L 631 462 L 631 631 L 462 631 Z M 462 462 " clip-rule="nonzero"/></clipPath><clipPath id="4c02f523b4"><path d="M 427.96875 546.789062 L 546.796875 427.960938 L 665.628906 546.789062 L 546.796875 665.621094 Z M 427.96875 546.789062 " clip-rule="nonzero"/></clipPath><clipPath id="6a8f7be985"><path d="M 487.382812 487.375 C 454.566406 520.191406 454.566406 573.390625 487.382812 606.207031 C 520.195312 639.019531 573.398438 639.019531 606.210938 606.207031 C 639.027344 573.390625 639.027344 520.191406 606.210938 487.375 C 573.398438 454.5625 520.195312 454.5625 487.382812 487.375 Z M 487.382812 487.375 " clip-rule="nonzero"/></clipPath><clipPath id="4cfb6348ec"><path d="M 320 605 L 489 605 L 489 774 L 320 774 Z M 320 605 " clip-rule="nonzero"/></clipPath><clipPath id="22e2adaf27"><path d="M 285.679688 689.078125 L 404.511719 570.25 L 523.339844 689.078125 L 404.511719 807.90625 Z M 285.679688 689.078125 " clip-rule="nonzero"/></clipPath><clipPath id="a6a95efa65"><path d="M 345.09375 629.664062 C 312.28125 662.476562 312.28125 715.679688 345.09375 748.492188 C 377.910156 781.308594 431.109375 781.308594 463.925781 748.492188 C 496.738281 715.679688 496.738281 662.476562 463.925781 629.664062 C 431.109375 596.847656 377.910156 596.847656 345.09375 629.664062 Z M 345.09375 629.664062 " clip-rule="nonzero"/></clipPath><clipPath id="bcee82ac91"><path d="M 463 178 L 632 178 L 632 347 L 463 347 Z M 463 178 " clip-rule="nonzero"/></clipPath><clipPath id="cfb3982d50"><path d="M 428.460938 262.707031 L 547.289062 143.878906 L 666.121094 262.707031 L 547.289062 381.539062 Z M 428.460938 262.707031 " clip-rule="nonzero"/></clipPath><clipPath id="77bcd3be08"><path d="M 487.875 203.292969 C 455.058594 236.109375 455.058594 289.308594 487.875 322.125 C 520.6875 354.9375 573.890625 354.9375 606.703125 322.125 C 639.519531 289.308594 639.519531 236.109375 606.703125 203.292969 C 573.890625 170.480469 520.6875 170.480469 487.875 203.292969 Z M 487.875 203.292969 " clip-rule="nonzero"/></clipPath><clipPath id="f654e5ce24"><path d="M 178 463 L 347 463 L 347 632 L 178 632 Z M 178 463 " clip-rule="nonzero"/></clipPath><clipPath id="b26d7d4af1"><path d="M 143.886719 547.28125 L 262.714844 428.453125 L 381.546875 547.28125 L 262.714844 666.113281 Z M 143.886719 547.28125 " clip-rule="nonzero"/></clipPath><clipPath id="1efc8e150b"><path d="M 203.300781 487.867188 C 170.484375 520.683594 170.484375 573.882812 203.300781 606.699219 C 236.113281 639.511719 289.316406 639.511719 322.128906 606.699219 C 354.945312 573.882812 354.945312 520.683594 322.128906 487.867188 C 289.316406 455.054688 236.113281 455.054688 203.300781 487.867188 Z M 203.300781 487.867188 " clip-rule="nonzero"/></clipPath><clipPath id="efb7e958f1"><path d="M 321 36 L 490 36 L 490 205 L 321 205 Z M 321 36 " clip-rule="nonzero"/></clipPath><clipPath id="9e82e2e453"><path d="M 286.664062 120.914062 L 405.496094 2.085938 L 524.324219 120.914062 L 405.496094 239.742188 Z M 286.664062 120.914062 " clip-rule="nonzero"/></clipPath><clipPath id="7c0a6dd833"><path d="M 346.078125 61.5 C 313.265625 94.3125 313.265625 147.515625 346.078125 180.328125 C 378.894531 213.144531 432.09375 213.144531 464.910156 180.328125 C 497.722656 147.515625 497.722656 94.3125 464.910156 61.5 C 432.09375 28.683594 378.894531 28.683594 346.078125 61.5 Z M 346.078125 61.5 " clip-rule="nonzero"/></clipPath><clipPath id="3251e8593c"><path d="M 179 179 L 348 179 L 348 348 L 179 348 Z M 179 179 " clip-rule="nonzero"/></clipPath><clipPath id="d2f5af3143"><path d="M 144.378906 263.203125 L 263.207031 144.371094 L 382.039062 263.203125 L 263.207031 382.03125 Z M 144.378906 263.203125 " clip-rule="nonzero"/></clipPath><clipPath id="44969200f2"><path d="M 203.792969 203.785156 C 170.980469 236.601562 170.980469 289.800781 203.792969 322.617188 C 236.605469 355.429688 289.808594 355.429688 322.621094 322.617188 C 355.4375 289.800781 355.4375 236.601562 322.621094 203.785156 C 289.808594 170.972656 236.605469 170.972656 203.792969 203.785156 Z M 203.792969 203.785156 " clip-rule="nonzero"/></clipPath><clipPath id="510f2c42da"><path d="M 36 321 L 205 321 L 205 490 L 36 490 Z M 36 321 " clip-rule="nonzero"/></clipPath><clipPath id="15a519ed95"><path d="M 2.089844 405.488281 L 120.921875 286.660156 L 239.75 405.488281 L 120.921875 524.316406 Z M 2.089844 405.488281 " clip-rule="nonzero"/></clipPath><clipPath id="65389d8b3f"><path d="M 61.503906 346.074219 C 28.691406 378.886719 28.691406 432.089844 61.503906 464.902344 C 94.320312 497.71875 147.519531 497.71875 180.335938 464.902344 C 213.148438 432.089844 213.148438 378.886719 180.335938 346.074219 C 147.519531 313.257812 94.320312 313.257812 61.503906 346.074219 Z M 61.503906 346.074219 " clip-rule="nonzero"/></clipPath></defs><g clip-path="url(#3b2874c0db)"><g clip-path="url(#0fd6d44dc5)"><g clip-path="url(#898c63bad1)"><path fill="#cb1d25" d="M 286.171875 404.996094 L 405.003906 286.167969 L 523.832031 404.996094 L 405.003906 523.824219 Z M 286.171875 404.996094 " fill-opacity="1" fill-rule="nonzero"/></g></g></g><g clip-path="url(#bbe38e7a89)"><g clip-path="url(#df28557a14)"><g clip-path="url(#6ad5a93490)"><path fill="#064b84" d="M 570.253906 404.503906 L 689.085938 285.675781 L 807.914062 404.503906 L 689.085938 523.332031 Z M 570.253906 404.503906 " fill-opacity="1" fill-rule="nonzero"/></g></g></g><g clip-path="url(#a103dc2d0d)"><g clip-path="url(#4c02f523b4)"><g clip-path="url(#6a8f7be985)"><path fill="#cb1d25" d="M 427.96875 546.789062 L 546.796875 427.960938 L 665.625 546.789062 L 546.796875 665.621094 Z M 427.96875 546.789062 " fill-opacity="1" fill-rule="nonzero"/></g></g></g><g clip-path="url(#4cfb6348ec)"><g clip-path="url(#22e2adaf27)"><g clip-path="url(#a6a95efa65)"><path fill="#d9d9d9" d="M 285.679688 689.078125 L 404.511719 570.25 L 523.339844 689.078125 L 404.511719 807.90625 Z M 285.679688 689.078125 " fill-opacity="1" fill-rule="nonzero"/></g></g></g><g clip-path="url(#bcee82ac91)"><g clip-path="url(#cfb3982d50)"><g clip-path="url(#77bcd3be08)"><path fill="#064b84" d="M 428.460938 262.707031 L 547.289062 143.878906 L 666.121094 262.707031 L 547.289062 381.539062 Z M 428.460938 262.707031 " fill-opacity="1" fill-rule="nonzero"/></g></g></g><g clip-path="url(#f654e5ce24)"><g clip-path="url(#b26d7d4af1)"><g clip-path="url(#1efc8e150b)"><path fill="#cb1d25" d="M 143.886719 547.28125 L 262.714844 428.453125 L 381.546875 547.28125 L 262.714844 666.113281 Z M 143.886719 547.28125 " fill-opacity="1" fill-rule="nonzero"/></g></g></g><g clip-path="url(#efb7e958f1)"><g clip-path="url(#9e82e2e453)"><g clip-path="url(#7c0a6dd833)"><path fill="#064b84" d="M 286.664062 120.914062 L 405.496094 2.085938 L 524.324219 120.914062 L 405.496094 239.742188 Z M 286.664062 120.914062 " fill-opacity="1" fill-rule="nonzero"/></g></g></g><g clip-path="url(#3251e8593c)"><g clip-path="url(#d2f5af3143)"><g clip-path="url(#44969200f2)"><path fill="#064b84" d="M 144.378906 263.203125 L 263.207031 144.371094 L 382.039062 263.203125 L 263.207031 382.03125 Z M 144.378906 263.203125 " fill-opacity="1" fill-rule="nonzero"/></g></g></g><g clip-path="url(#510f2c42da)"><g clip-path="url(#15a519ed95)"><g clip-path="url(#65389d8b3f)"><path fill="#064b84" d="M 2.089844 405.488281 L 120.921875 286.660156 L 239.75 405.488281 L 120.921875 524.316406 Z M 2.089844 405.488281 " fill-opacity="1" fill-rule="nonzero"/></g></g></g></svg>